<mxfile host="app.diagrams.net" modified="2023-09-03T18:52:27.716Z" agent="Mozilla/5.0 (Linux; Android 10; K) AppleWebKit/537.36 (KHTML, like Gecko) Chrome/116.0.0.0 Safari/537.36" version="21.7.2" etag="wrmgd19O7jJOaD8NVmQe" type="github">
  <diagram name="PÃ¡gina-1" id="_09eoN5sBcOYWlevEsd9">
    <mxGraphModel>
      <root>
        <mxCell id="0" />
        <mxCell id="1" parent="0" />
      </root>
    </mxGraphModel>
  </diagram>
</mxfile>
